<svg width="207" height="29" viewBox="0 0 207 29" fill="none" xmlns="http://www.w3.org/2000/svg">
<path d="M26.0803 28H15.9545L15.3487 21.1196H7.34316L4.27079 28H0.0733121L12.8388 0.521692H23.0945L26.0803 28ZM8.77117 17.9607H15.0457L14.0505 6.19045L8.77117 17.9607ZM44.0258 9.39264H52.8534L48.8723 28H41.8621L41.0832 25.2305H40.8236C40.0735 26.1248 39.0494 26.8749 37.7512 27.4807C36.4818 28.0577 35.1981 28.3462 33.8999 28.3462C32.169 28.3462 30.8131 27.9135 29.8322 27.048C28.8514 26.1537 28.361 24.9997 28.361 23.5862C28.361 22.8649 28.4764 21.9706 28.7071 20.9032C28.9668 19.807 29.1976 18.7829 29.3995 17.8309L31.217 9.39264H40.0014L37.8377 19.5185C37.78 19.7493 37.7223 20.0234 37.6646 20.3407C37.6069 20.658 37.5492 20.9754 37.4915 21.2927C37.4338 21.5812 37.3761 21.8697 37.3185 22.1582C37.2896 22.4178 37.2752 22.6342 37.2752 22.8072C37.2752 23.24 37.3617 23.615 37.5348 23.9323C37.7368 24.2208 38.0829 24.3651 38.5734 24.3651C39.0926 24.3651 39.5831 24.192 40.0446 23.8458C40.5062 23.4996 40.8668 23.1679 41.1265 22.8505L44.0258 9.39264ZM55.1885 9.39264C56.2559 9.16185 57.1935 8.90222 58.0012 8.61373C58.809 8.32524 59.5446 7.96464 60.2081 7.53191C60.9005 7.09918 61.5496 6.56548 62.1554 5.93081C62.7901 5.29614 63.468 4.51723 64.1892 3.59407H68.6464L67.3914 9.39264H70.7667L70.2042 12.2919H66.7856L65.0114 20.7301C64.8672 21.3937 64.7518 21.9851 64.6652 22.5043C64.5787 23.0236 64.5354 23.4275 64.5354 23.716C64.5354 24.293 64.7374 24.6536 65.1412 24.7978C65.574 24.942 66.3673 25.0142 67.5213 25.0142L66.8722 28C66.6702 28.0577 66.3529 28.101 65.9202 28.1298C65.5163 28.1587 65.0547 28.1875 64.5354 28.2164C64.045 28.2741 63.5257 28.3029 62.9776 28.3029C62.4583 28.3318 61.9967 28.3462 61.5929 28.3462C60.8717 28.3462 60.1649 28.2885 59.4725 28.1731C58.7801 28.0865 58.1599 27.899 57.6118 27.6105C57.0636 27.2932 56.6165 26.8461 56.2703 26.2691C55.953 25.6921 55.7943 24.9132 55.7943 23.9323C55.7943 23.5862 55.8087 23.1534 55.8376 22.6342C55.8953 22.1149 55.9962 21.5379 56.1405 20.9032L57.9579 12.2919H54.5827L55.1885 9.39264ZM126.754 28H117.148L121.129 9.3061L110.873 28H104.988L103.041 8.657L98.8864 28H94.9918L100.834 0.521692H111.868L113.21 16.0134L121.518 0.521692H132.639L126.754 28ZM134.619 10.9937C136.09 10.2725 137.59 9.75325 139.119 9.43592C140.677 9.08973 142.408 8.91664 144.312 8.91664C146.158 8.91664 147.687 9.06088 148.899 9.34937C150.111 9.63786 151.077 10.0562 151.798 10.6043C152.52 11.1524 153.024 11.8015 153.313 12.5516C153.601 13.3016 153.746 14.1527 153.746 15.1047C153.746 15.6528 153.702 16.2442 153.616 16.8789C153.558 17.5135 153.486 18.0472 153.399 18.48L151.366 28H144.399L143.62 25.2305H143.36C142.437 26.2402 141.355 27.0191 140.115 27.5673C138.903 28.0865 137.691 28.3462 136.48 28.3462C135.787 28.3462 135.109 28.2452 134.446 28.0433C133.782 27.8413 133.191 27.5384 132.672 27.1345C132.152 26.7018 131.734 26.1681 131.417 25.5334C131.099 24.8699 130.941 24.0766 130.941 23.1534C130.941 21.6533 131.345 20.4705 132.152 19.6051C132.989 18.7107 134.071 18.0472 135.398 17.6145C136.754 17.1529 138.268 16.8644 139.942 16.749C141.644 16.6336 143.346 16.5759 145.048 16.5759C145.105 16.2875 145.178 15.8836 145.264 15.3643C145.351 14.8162 145.394 14.3402 145.394 13.9363C145.394 13.417 145.25 12.941 144.961 12.5083C144.702 12.0467 144.139 11.8159 143.274 11.8159C142.264 11.8159 141.514 12.1188 141.023 12.7247C140.562 13.3016 140.259 14.0084 140.115 14.845H133.797L134.619 10.9937ZM144.572 18.6098H143.793C142.956 18.6098 142.235 18.7252 141.629 18.956C141.052 19.1579 140.576 19.432 140.201 19.7781C139.855 20.1243 139.595 20.5138 139.422 20.9465C139.249 21.3792 139.163 21.812 139.163 22.2447C139.163 22.9371 139.336 23.4563 139.682 23.8025C140.057 24.1487 140.49 24.3218 140.98 24.3218C141.586 24.3218 142.177 24.1054 142.754 23.6727C143.36 23.24 143.735 22.663 143.879 21.9418L144.572 18.6098ZM156.694 9.39264C157.761 9.16185 158.699 8.90222 159.507 8.61373C160.314 8.32524 161.05 7.96464 161.714 7.53191C162.406 7.09918 163.055 6.56548 163.661 5.93081C164.296 5.29614 164.973 4.51723 165.695 3.59407H170.152L168.897 9.39264H172.272L171.71 12.2919H168.291L166.517 20.7301C166.373 21.3937 166.257 21.9851 166.171 22.5043C166.084 23.0236 166.041 23.4275 166.041 23.716C166.041 24.293 166.243 24.6536 166.647 24.7978C167.079 24.942 167.873 25.0142 169.027 25.0142L168.378 28C168.176 28.0577 167.858 28.101 167.426 28.1298C167.022 28.1587 166.56 28.1875 166.041 28.2164C165.55 28.2741 165.031 28.3029 164.483 28.3029C163.964 28.3318 163.502 28.3462 163.098 28.3462C162.377 28.3462 161.67 28.2885 160.978 28.1731C160.286 28.0865 159.665 27.899 159.117 27.6105C158.569 27.2932 158.122 26.8461 157.776 26.2691C157.458 25.6921 157.3 24.9132 157.3 23.9323C157.3 23.5862 157.314 23.1534 157.343 22.6342C157.401 22.1149 157.502 21.5379 157.646 20.9032L159.463 12.2919H156.088L156.694 9.39264ZM180.001 28H171.216L175.154 9.39264H184.025L180.001 28ZM185.15 3.72389C185.15 4.38741 185.006 4.96438 184.718 5.45481C184.458 5.94523 184.097 6.36354 183.636 6.70972C183.203 7.0559 182.698 7.31554 182.121 7.48863C181.544 7.66173 180.953 7.74827 180.347 7.74827C179.193 7.74827 178.227 7.47421 177.448 6.92609C176.669 6.37796 176.279 5.5125 176.279 4.32971C176.279 3.69504 176.409 3.13249 176.669 2.64207C176.928 2.12279 177.275 1.70449 177.707 1.38715C178.169 1.04097 178.688 0.781331 179.265 0.608239C179.871 0.435146 180.491 0.3486 181.126 0.3486C182.251 0.3486 183.203 0.622663 183.982 1.17079C184.761 1.71891 185.15 2.56994 185.15 3.72389ZM203.54 26.9614C202.328 27.4519 201.044 27.7981 199.689 28C198.362 28.2308 196.847 28.3462 195.145 28.3462C193.645 28.3462 192.26 28.2019 190.991 27.9135C189.75 27.5961 188.668 27.1057 187.745 26.4422C186.822 25.7787 186.101 24.9276 185.582 23.8891C185.062 22.8217 184.803 21.5379 184.803 20.0378C184.803 18.48 185.062 17.0375 185.582 15.7105C186.13 14.3546 186.938 13.1718 188.005 12.1621C189.101 11.1524 190.486 10.3591 192.159 9.7821C193.832 9.20513 195.823 8.91664 198.131 8.91664C200.006 8.91664 201.636 9.07531 203.021 9.39264C204.405 9.68113 205.545 10.3591 206.439 11.4265L205.228 16.9654H199.342C199.371 16.475 199.4 16.0422 199.429 15.6672C199.458 15.2922 199.472 14.8739 199.472 14.4123C199.472 13.4891 199.371 12.8401 199.169 12.465C198.967 12.0611 198.636 11.8592 198.174 11.8592C197.366 11.8592 196.66 12.2631 196.054 13.0708C195.448 13.8498 194.943 14.8018 194.539 15.9269C194.164 17.0231 193.876 18.1915 193.674 19.432C193.501 20.6436 193.414 21.6822 193.414 22.5476C193.414 22.8649 193.428 23.1967 193.457 23.5429C193.486 23.8602 193.544 24.1631 193.63 24.4516C193.746 24.7401 193.89 24.9709 194.063 25.144C194.236 25.3171 194.481 25.4036 194.799 25.4036C195.087 25.4036 195.419 25.3171 195.794 25.144C196.169 24.9709 196.53 24.7113 196.876 24.3651C197.222 23.99 197.554 23.514 197.871 22.9371C198.188 22.3601 198.434 21.6677 198.607 20.86H204.795L203.54 26.9614Z" fill="#1C1C1F"/>
<path d="M80.4322 11.918C82.2012 11.918 83.804 12.6347 84.9628 13.7952C86.1217 14.9541 86.84 16.5568 86.84 18.3258C86.84 20.0948 86.1233 21.6976 84.9628 22.8564C83.804 24.0153 82.2012 24.7336 80.4322 24.7336C78.6632 24.7336 77.0605 24.0169 75.9016 22.8564C74.7427 21.6976 74.0244 20.0948 74.0244 18.3258C74.0244 16.5568 74.7411 14.9541 75.9016 13.7952C77.0605 12.6363 78.6632 11.918 80.4322 11.918ZM80.4322 8.4091C83.1713 8.4091 85.6504 9.51957 87.4436 11.3144C89.2385 13.1092 90.3489 15.5884 90.3489 18.3258C90.3489 21.0649 89.2385 23.544 87.4436 25.3372C85.6488 27.1321 83.1696 28.2425 80.4322 28.2425C77.6932 28.2425 75.214 27.1321 73.4208 25.3372C71.626 23.544 70.5155 21.0649 70.5155 18.3258C70.5155 15.5868 71.626 13.1076 73.4208 11.3144C75.214 9.51957 77.6932 8.4091 80.4322 8.4091ZM85.602 13.156C84.2785 11.8325 82.4514 11.0142 80.4322 11.0142C78.413 11.0142 76.5859 11.8325 75.2624 13.156C73.9389 14.4795 73.1206 16.3066 73.1206 18.3258C73.1206 20.345 73.9389 22.1721 75.2624 23.4956C76.5859 24.8191 78.413 25.6375 80.4322 25.6375C82.4514 25.6375 84.2785 24.8191 85.602 23.4956C86.9255 22.1721 87.7439 20.345 87.7439 18.3258C87.7439 16.3066 86.9255 14.4795 85.602 13.156ZM81.0794 17.5721C80.9148 17.4074 80.6872 17.3057 80.4322 17.3057C80.1788 17.3057 79.9496 17.4074 79.785 17.5721L79.7834 17.5737C79.6187 17.7383 79.517 17.9659 79.517 18.2209C79.517 18.4743 79.6187 18.7035 79.7834 18.8681L79.785 18.8697C79.9496 19.0344 80.1772 19.1361 80.4322 19.1361C80.6856 19.1361 80.9148 19.0344 81.0794 18.8697L81.0811 18.8681C81.2457 18.7035 81.3474 18.4743 81.3474 18.2209C81.3458 17.9659 81.2441 17.7383 81.0794 17.5721ZM81.0165 16.6069C81.2538 16.694 81.4684 16.8312 81.6444 17.0071C81.7041 17.0669 81.7606 17.1314 81.8106 17.2008L81.8268 17.196L85.2195 16.2873C84.9564 15.6691 84.5771 15.1122 84.109 14.6458C83.2971 13.8339 82.2174 13.2884 81.0149 13.1544V16.5633C81.0181 16.5778 81.0181 16.5923 81.0165 16.6069ZM82.1431 18.3565C82.1205 18.6357 82.0317 18.8972 81.8897 19.1248C81.8978 19.1345 81.9042 19.1458 81.9107 19.157L83.8588 22.2447C83.946 22.1689 84.0299 22.0898 84.1122 22.0075C85.0532 21.0665 85.6359 19.7639 85.6359 18.3274C85.6359 18.0256 85.6101 17.7302 85.56 17.4413L82.1431 18.3565ZM80.9374 19.8608C80.7776 19.9108 80.6081 19.9366 80.4322 19.9366C80.274 19.9366 80.1207 19.9157 79.9738 19.8753L78.0725 22.9662C78.781 23.3278 79.5832 23.5311 80.4322 23.5311C81.3135 23.5311 82.1431 23.3116 82.871 22.9259L80.9374 19.8608ZM79.0006 19.1651C78.8521 18.9424 78.7552 18.6825 78.7262 18.4049H78.7246L75.3205 17.3396C75.2592 17.6592 75.2269 17.9885 75.2269 18.3258C75.2269 19.7623 75.8096 21.0649 76.7506 22.0058C76.8523 22.1075 76.9588 22.206 77.0702 22.2996L78.9747 19.2022C78.9844 19.1909 78.9925 19.178 79.0006 19.1651ZM79.0248 17.2412C79.0829 17.1589 79.1474 17.0798 79.2201 17.0088C79.3895 16.8409 79.5929 16.7069 79.8189 16.6198C79.8173 16.602 79.8156 16.5826 79.8156 16.5649V13.1592C78.6245 13.2997 77.556 13.842 76.7522 14.6474C76.3083 15.0913 75.9435 15.6158 75.6821 16.1969L79.0248 17.2412Z" fill="#1C1C1F"/>
</svg>
